#define ac_01_width 8
#define ac_01_height 8
static unsigned char ac_01_bits[] = {
 0x00, 0x38, 0xfc, 0x3f, 0x3f, 0xfc, 0x38, 0x00 };
